<svg width="7892" height="1024" viewBox="0 0 3892 1024" fill="none" xmlns="http://www.w3.org/2000/svg">
<path d="M1359.96 377.856C1363.94 377.852 1367.93 377.9 1374.41 378.012C1387.37 378.235 1392.89 384.937 1390.61 398.151L1357.93 587.254C1353.93 610.265 1362.56 622.362 1385.5 622.745C1414.57 623.223 1449.33 623 1478.37 622.521C1494.66 622.266 1505.21 613.808 1508.67 597.627C1514.66 569.636 1519.44 541.358 1524.52 513.145C1531.55 473.696 1538.27 434.152 1545.34 394.704C1547.53 382.48 1553.17 378.107 1565.62 377.98L1579.91 377.86L1582.98 377.862C1586.13 377.872 1589.61 377.908 1594.36 377.98C1607.04 378.171 1612.56 383.884 1610.56 396.587C1608.34 410.742 1605.97 424.873 1603.52 438.995L1596.11 481.356C1588.25 526.039 1580.77 570.721 1572.18 615.404C1567.23 641.16 1556.68 664.076 1531.74 676.906C1516.81 684.566 1500.52 686.481 1484.19 686.992L1475.66 687.153C1462.44 687.342 1447.34 687.288 1430.34 686.992C1402.38 686.992 1380.74 688.939 1352.91 686.992C1318.97 684.598 1292.04 662.927 1288.9 628.713C1288.15 616.261 1289 603.763 1291.44 591.531C1302.6 526.103 1314.29 460.674 1325.73 395.438C1327.83 383.533 1333.59 378.171 1345.54 378.012L1359.96 377.856ZM1886.23 378.012L1892.46 378.307C1896.97 378.591 1898.68 379.001 1901.83 380.304C1925.25 387.485 1935.55 409.034 1932.7 438.11C1930.86 454.209 1928.13 465.769 1924.52 481.561C1920.44 500.998 1910.14 521.379 1889.06 528.018C1914.42 540.593 1910.72 569.418 1906.88 593.929C1904.78 607.276 1902.55 614.156 1899.94 626.231L1898.14 634.856C1890.16 671.783 1880.69 686.659 1840.98 687.088L1818.42 687.266C1781.81 687.448 1749.42 687.12 1710.67 687.279H1636.98C1621.14 687.279 1615.91 680.896 1618.63 665.448C1630.61 597.467 1642.63 529.486 1654.7 461.504C1658.6 439.546 1662.21 417.556 1666.27 395.629C1668.71 382.32 1673.97 378.012 1687.38 378.012H1886.23ZM2240.83 377.916C2256.57 377.916 2261.91 383.851 2259.66 398.584L2255.13 424.35C2253.04 436.191 2247.97 440.914 2235.92 441.17L2229.69 441.243C2214.99 441.356 2193.24 441.198 2179.62 441.173L2055.35 441.17L2052.36 457.389C2049.88 470.678 2047.4 483.638 2044.8 498.046H2126.67L2129.8 498.101C2142.6 498.592 2145.3 502.514 2143.19 516.124L2142.93 517.738C2141.63 525.302 2140.36 539.533 2139.25 547.161C2137.57 558.651 2133.74 562.129 2121.91 562.129H2045.09L2034.56 562.385C2030.57 585.205 2026.73 599.501 2022.68 622.577L2196.54 622.623C2199.75 622.655 2202.67 622.709 2203.96 622.8C2213.79 623.566 2219.1 629.407 2217.8 639.397C2216.58 648.865 2214.6 660.225 2212.81 669.629C2210.4 682.396 2204.69 687.183 2191.47 687.247H1966.97C1953.29 686.91 1947.75 681.024 1949.34 667.975L1949.86 664.571C1953.6 641.959 1982.89 471.924 1996.02 397.385C1998.62 382.703 2003.95 377.916 2019 377.916H2240.83ZM1216.06 377C1227.36 377 1238.08 382.816 1245.31 391.568C1252.08 399.772 1255.13 410.423 1253.79 420.944L1253.46 423.045L1234.37 531.816H1271.24C1275.06 531.82 1278.67 533.555 1281.07 536.539C1283.18 539.15 1284.16 542.474 1283.85 545.784L1283.64 547.199L1277.61 582.658C1276.46 588.183 1271.86 592.242 1266.37 592.753L1265.18 592.807H1223.08L1211.54 655.235C1208.32 672.758 1193.55 685.631 1176.03 686.498L1174.15 686.545H953.016C941.649 686.54 930.881 681.415 923.66 672.575C916.891 664.287 913.905 653.548 915.361 642.983L955.427 408.683C958.805 391.342 973.492 377.959 990.861 377.049L992.732 377H1216.06ZM1184.55 441.589H1015.05L983.53 622.713H1152.09L1157.76 592.807H1124.19C1120.37 592.812 1116.75 591.081 1114.34 588.096C1112.23 585.484 1111.25 582.155 1111.56 578.841L1111.77 577.424L1119.25 541.965C1120.39 536.484 1124.92 532.439 1130.37 531.881L1131.55 531.816H1168.85L1184.55 441.589ZM1824.22 561.183H1702.68C1698.31 586.301 1694.61 596.68 1690.3 621.383C1690.97 621.772 1691.7 622.062 1692.45 622.245L1780.99 622.177C1790.82 622.155 1800.84 622.125 1811.2 622.085C1821.34 622.085 1835.57 617.649 1838.2 607.372L1839.34 603.223C1841.56 595.533 1842.25 595.355 1843.9 584.706C1846.37 568.748 1840.32 561.981 1824.22 561.183ZM1841.73 441.022H1722.93C1719.13 462.949 1715.42 475.465 1711.65 497.232C1712.78 497.513 1713.92 497.727 1715.07 497.87L1823.03 497.765C1828.12 497.749 1833.07 497.731 1837.83 497.711C1850.32 497.711 1855.79 493.973 1858.99 482.671L1861.17 474.23C1862.77 467.897 1863.91 462.715 1864.58 454.993C1865.53 443.376 1860.24 442.522 1848.58 441.373C1846.3 441.179 1844.02 441.062 1841.73 441.022Z" fill="white"/>
<path d="M2517.95 667.906C2511.1 681.543 2502.02 688.379 2487.25 687.826L2485.2 687.705C2476.69 687 2468.12 687.705 2459.61 687.545C2446.59 687.289 2440.54 682.035 2438.24 669.444L2429.01 619.284H2542.89C2534.52 635.465 2526.2 651.668 2517.95 667.906ZM3070.51 621.062C3066.66 643.129 3063.86 659.417 3062.09 669.925C3060.3 681.041 3054.29 687.128 3042.9 687.449C3029.02 687.897 3015.14 687.961 3001.32 687.449C2989.36 686.968 2983.89 679.92 2985.93 668.227L2989.6 647.734C2991.22 638.718 2992.96 629.15 2994.76 619.284H3070.86L3070.51 621.062ZM2931.07 669.316C2928.87 681.938 2923.01 687.321 2910.03 687.641C2907.81 687.694 2905.59 687.712 2903.36 687.712L2890.03 687.641C2883.38 687.641 2876.73 687.929 2870.07 687.641C2856.99 687.16 2851.59 680.753 2853.79 667.938C2856.64 651.72 2859.65 635.5 2862.74 619.284H2940.15C2937.03 635.962 2933.99 652.646 2931.07 669.316ZM3274.55 660.987C3276.19 664.063 3277.56 667.279 3278.64 670.598C3280.91 678.222 3278.04 683.925 3270.42 686.103C3267.14 686.934 3263.77 687.418 3260.39 687.547L3257.85 687.577H3225.1C3215.78 688.158 3207.09 683.097 3202.94 674.842L3202.26 673.353C3195.04 658.481 3189.55 638.843 3183.96 619.284H3259.04L3262.14 629.219C3265.81 640.689 3269.74 651.673 3274.55 660.987ZM2631.3 619.284H2746.54L2731.22 647.496C2727.03 655.293 2722.9 663.12 2718.89 671.014C2713.32 682.001 2705.16 687.438 2693.44 687.544L2691.45 687.513C2681.34 687.192 2671.2 687.513 2661.06 687.513C2648.33 687.321 2641.87 681.714 2639.76 669.284L2631.3 619.284ZM3578.64 619.284C3588.46 620.045 3593.77 626.947 3592.48 636.875C3591.25 646.285 3589.28 657.575 3587.48 666.922C3585.07 679.61 3579.37 684.368 3566.17 684.432H3340C3326.32 684.096 3317.75 678.247 3319.11 665.277L3319.32 663.687C3319.89 660.149 3323.03 643.317 3327.55 619.284C3493.94 619.213 3577.64 619.213 3578.64 619.284ZM3615.49 377C3631.22 377 3636.55 382.899 3634.3 397.541L3629.77 423.149C3627.68 434.917 3622.61 439.611 3610.58 439.865L3603.87 439.941C3587.96 440.056 3564.17 439.865 3551.13 439.865H3428.32L3425.33 455.985C3422.84 469.193 3420.37 482.073 3417.77 496.392H3499.58C3515.05 496.392 3518.36 499.793 3516.09 514.36L3515.83 515.963C3514.53 523.481 3513.26 537.624 3512.15 545.205C3510.47 556.625 3506.64 560.082 3494.83 560.082H3418.06L3416.18 560.122L3416.19 559.857L3338.74 559.867L3354.2 477.385C3359.97 446.383 3365.28 417.498 3369.03 396.349C3371.62 381.758 3376.95 377 3391.99 377H3615.49ZM2447.55 377.111C2459.7 377.271 2465.08 382.077 2467.03 393.77C2476.15 449.163 2485.31 504.528 2494.51 559.864L2418.09 559.857L2396.91 444.516C2394.07 429.074 2391.22 413.601 2388.53 398.095C2387.38 391.33 2388.09 386.211 2390.74 382.723C2393.57 378.976 2398.63 377.111 2405.97 377.111C2419.85 376.983 2433.71 376.983 2447.55 377.111ZM2618.54 377.011L2620.5 377.111C2627.12 377.463 2633.81 377.111 2640.49 377.111C2651.98 377.367 2658.02 382.077 2659.97 393.322C2666.12 429.875 2671.94 466.461 2677.85 503.047L2687.1 559.857L2621.24 559.858L2610.52 496.639C2610.17 495.545 2609.74 494.474 2609.24 493.436L2606.41 497.823C2605.86 498.702 2605.35 499.548 2604.89 500.42L2573.83 559.861L2507.12 559.857L2524.71 525.547C2547.06 481.969 2569.41 438.413 2591.46 394.731C2597.16 383.369 2604.85 377.304 2616.64 377.011H2618.54ZM2813.25 377.079C2825.22 377.496 2837.24 377.079 2849.24 377.079C2867.71 377.141 2872.67 384.299 2864.82 399.921L2864.02 401.459L2778.61 559.857H2700.35L2741 481.718C2756.3 452.269 2771.56 422.795 2786.71 393.257C2792.22 382.453 2799.63 377.111 2811.27 377.042L2813.25 377.079ZM2961.98 377.111C2977.68 377.175 2983.15 383.679 2980.43 399.312C2975.76 426.319 2970.84 453.326 2966.1 480.301C2961.42 506.834 2956.42 533.356 2951.39 559.867L2874.17 559.86C2877.52 542.373 2880.8 524.888 2883.9 507.404C2890.52 469.889 2897.27 432.406 2903.92 394.891C2906.06 382.634 2911.42 377.558 2922.83 377.139L2924.42 377.111H2961.98ZM3248.87 377.271C3259.52 377.219 3270.13 378.533 3280.44 381.18C3307.92 388.548 3319.7 410.205 3316.5 441.056L3315.92 446.813C3314.04 466.929 3315.68 465.925 3309.92 489.503C3301.11 524.933 3283.47 554.922 3248.14 559.872L3005.65 559.864L3015.53 505.613L3019.29 484.505C3026.22 445.72 3028.71 436.304 3035.32 397.39C3037.95 382.045 3043.19 377.079 3058.61 377.079L3153.74 377.043C3185.45 377.047 3217.15 377.095 3248.87 377.271ZM3106.25 440.504C3104.99 440.653 3103.75 440.922 3102.54 441.305L3100.7 451.874C3097.73 469.474 3098.4 468.387 3093.82 494.309C3134.38 494.309 3174.04 494.853 3213.64 494.052C3226.44 493.654 3229.66 482.634 3231.43 470.921L3232.04 466.515C3234.6 447.261 3233.36 440.953 3214.17 440.728C3178.19 440.312 3142.23 440.504 3106.25 440.504Z" fill="white"/>
<path d="M432.924 650.436L382.245 438.848L295.129 438.857L257.296 661.229C256.434 666.298 256 671.43 256 676.571C256 727.066 296.922 768 347.401 768H689.713C734.274 768 772.34 735.856 779.818 691.913L810.822 509.687H697.697L650.365 656.631L649.611 658.769C646.096 667.92 639.426 675.518 630.809 680.187L628.786 681.211L626.964 682.02C607.428 690.137 584.859 682.047 574.922 663.367L574.028 661.585L540.533 590.665L510.445 657.702L509.471 659.723C504.344 669.66 495.386 677.086 484.672 680.279L482.506 680.861L480.555 681.28C459.754 685.226 439.301 672.661 433.419 652.309L432.924 650.436Z" fill="white"/>
<path d="M837.123 347.429C837.123 296.934 796.201 256 745.722 256H403.41C358.849 256 320.782 288.144 313.305 332.087L306.024 374.857H385.852L388.201 374.903C413.927 375.912 436.106 393.427 443.054 418.23L443.628 420.439L479.523 570.322L502.485 519.183L503.344 517.384C512.918 498.515 535.327 489.991 555.016 497.728L556.853 498.501L558.886 499.482C566.22 503.272 572.247 509.185 576.177 516.447L577.196 518.461L607.192 581.97L637.831 486.889L638.591 484.679C646.862 462.07 667.992 446.675 692.041 445.735L694.378 445.689L821.708 445.687L835.827 362.771C836.689 357.702 837.123 352.57 837.123 347.429Z" fill="white"/>
</svg>
